<svg xmlns="http://www.w3.org/2000/svg" viewBox="526 126 174 192" width="174" height="192"><defs><filter id="lathe-f1" x="-40%" y="-40%" width="180%" height="180%"><feGaussianBlur stdDeviation="3"/></filter><linearGradient id="lathe-lg2" x1="0" y1="0" x2="0" y2="1"><stop offset="0" stop-color="#2E3A45"/><stop offset="1" stop-color="#2a3642"/></linearGradient><linearGradient id="lathe-lg3" x1="0" y1="0" x2="0" y2="1"><stop offset="0" stop-color="#26333f"/><stop offset="1" stop-color="#222f3c"/></linearGradient><linearGradient id="lathe-lg4" x1="0" y1="0" x2="1" y2="1"><stop offset="0" stop-color="#656d75"/><stop offset="1" stop-color="#545d66"/></linearGradient><linearGradient id="lathe-lg5" x1="0" y1="0" x2="0" y2="1"><stop offset="0" stop-color="#3A8C82"/><stop offset="1" stop-color="#347e77"/></linearGradient><linearGradient id="lathe-lg6" x1="0" y1="0" x2="0" y2="1"><stop offset="0" stop-color="#30736f"/><stop offset="1" stop-color="#2a6564"/></linearGradient><linearGradient id="lathe-lg7" x1="0" y1="0" x2="1" y2="1"><stop offset="0" stop-color="#6daaa2"/><stop offset="1" stop-color="#5da198"/></linearGradient><pattern id="lz" width="6" height="6" patternUnits="userSpaceOnUse" patternTransform="rotate(45)"><rect width="3" height="6" fill="#2B2B2B"/></pattern><linearGradient id="lathe-lg8" x1="0" y1="0" x2="0" y2="1"><stop offset="0" stop-color="#B4BEC6"/><stop offset="1" stop-color="#a0aab3"/></linearGradient><linearGradient id="lathe-lg9" x1="0" y1="0" x2="0" y2="1"><stop offset="0" stop-color="#8f9aa4"/><stop offset="1" stop-color="#7b8691"/></linearGradient><linearGradient id="lathe-lg10" x1="0" y1="0" x2="1" y2="1"><stop offset="0" stop-color="#c8cfd5"/><stop offset="1" stop-color="#c2cad0"/></linearGradient><linearGradient id="lathe-lg11" x1="0" y1="0" x2="0" y2="1"><stop offset="0" stop-color="#7D8993"/><stop offset="1" stop-color="#6f7c86"/></linearGradient><linearGradient id="lathe-lg12" x1="0" y1="0" x2="0" y2="1"><stop offset="0" stop-color="#64717c"/><stop offset="1" stop-color="#56636f"/></linearGradient><linearGradient id="lathe-lg13" x1="0" y1="0" x2="1" y2="1"><stop offset="0" stop-color="#9fa8af"/><stop offset="1" stop-color="#949ea6"/></linearGradient><linearGradient id="lathe-lg14" x1="0" y1="0" x2="0" y2="1"><stop offset="0" stop-color="#8E9AA4"/><stop offset="1" stop-color="#7e8b95"/></linearGradient><linearGradient id="lathe-lg15" x1="0" y1="0" x2="0" y2="1"><stop offset="0" stop-color="#717e89"/><stop offset="1" stop-color="#616e7b"/></linearGradient><linearGradient id="lathe-lg16" x1="0" y1="0" x2="1" y2="1"><stop offset="0" stop-color="#abb4bc"/><stop offset="1" stop-color="#a2acb4"/></linearGradient><linearGradient id="lathe-lg17" x1="0" y1="0" x2="0" y2="1"><stop offset="0" stop-color="#2C6E66"/><stop offset="1" stop-color="#28645f"/></linearGradient><linearGradient id="lathe-lg18" x1="0" y1="0" x2="0" y2="1"><stop offset="0" stop-color="#255c59"/><stop offset="1" stop-color="#215152"/></linearGradient><linearGradient id="lathe-lg19" x1="0" y1="0" x2="1" y2="1"><stop offset="0" stop-color="#63948e"/><stop offset="1" stop-color="#528882"/></linearGradient><radialGradient id="chk" cx=".35" cy=".35"><stop offset="0" stop-color="#F2F5F7"/><stop offset="1" stop-color="#7D8993"/></radialGradient><linearGradient id="lathe-lg20" x1="0" y1="0" x2="0" y2="1"><stop offset="0" stop-color="#C9D2D9"/><stop offset="1" stop-color="#b2bcc4"/></linearGradient><linearGradient id="lathe-lg21" x1="0" y1="0" x2="0" y2="1"><stop offset="0" stop-color="#9faab2"/><stop offset="1" stop-color="#88939e"/></linearGradient><linearGradient id="lathe-lg22" x1="0" y1="0" x2="1" y2="1"><stop offset="0" stop-color="#d7dee3"/><stop offset="1" stop-color="#d3dae0"/></linearGradient><linearGradient id="lathe-lg23" x1="0" y1="0" x2="0" y2="1"><stop offset="0" stop-color="#E9C46A"/><stop offset="1" stop-color="#ceb062"/></linearGradient><linearGradient id="lathe-lg24" x1="0" y1="0" x2="0" y2="1"><stop offset="0" stop-color="#b89f5c"/><stop offset="1" stop-color="#9e8a54"/></linearGradient><linearGradient id="lathe-lg25" x1="0" y1="0" x2="1" y2="1"><stop offset="0" stop-color="#efd491"/><stop offset="1" stop-color="#edcf85"/></linearGradient></defs><polygon points="632.72,231.36 693.52,261.76 593.36,311.84 532.56,281.44" fill="#1E2830" opacity="0.3" filter="url(#lathe-f1)"/><polygon points="623.12,232.48 673.04,257.44 673.04,261.44 623.12,236.48" fill="url(#lathe-lg2)" stroke="#1c2a38" stroke-width="0.8" stroke-opacity="0.55" stroke-linejoin="round"/><polygon points="678.16,254.88 673.04,257.44 673.04,261.44 678.16,258.88" fill="url(#lathe-lg3)" stroke="#1c2a38" stroke-width="0.8" stroke-opacity="0.55" stroke-linejoin="round"/><polygon points="628.24,229.92 678.16,254.88 673.04,257.44 623.12,232.48" fill="url(#lathe-lg4)" stroke="#1c2a38" stroke-width="0.8" stroke-opacity="0.55" stroke-linejoin="round"/><polygon points="539.92,274.08 589.84,299.04 589.84,303.04 539.92,278.08" fill="url(#lathe-lg2)" stroke="#1c2a38" stroke-width="0.8" stroke-opacity="0.55" stroke-linejoin="round"/><polygon points="594.96,296.48 589.84,299.04 589.84,303.04 594.96,300.48" fill="url(#lathe-lg3)" stroke="#1c2a38" stroke-width="0.8" stroke-opacity="0.55" stroke-linejoin="round"/><polygon points="545.04,271.52 594.96,296.48 589.84,299.04 539.92,274.08" fill="url(#lathe-lg4)" stroke="#1c2a38" stroke-width="0.8" stroke-opacity="0.55" stroke-linejoin="round"/><polygon points="537.36,242.08 590.16,268.48 590.16,300.48 537.36,274.08" fill="url(#lathe-lg5)" stroke="#225356" stroke-width="0.8" stroke-opacity="0.55" stroke-linejoin="round"/><polygon points="681.36,222.88 590.16,268.48 590.16,300.48 681.36,254.88" fill="url(#lathe-lg6)" stroke="#225356" stroke-width="0.8" stroke-opacity="0.55" stroke-linejoin="round"/><polygon points="628.56,196.48 681.36,222.88 590.16,268.48 537.36,242.08" fill="url(#lathe-lg7)" stroke="#225356" stroke-width="0.8" stroke-opacity="0.55" stroke-linejoin="round"/><polyline points="537.36,242.08 590.16,268.48 681.36,222.88" fill="none" stroke="#b0d1cd" stroke-width="1" stroke-linecap="round" stroke-linejoin="round" opacity="0.75"/><g transform="matrix(1,-0.5,0,1,590.16,268.48)"><rect x="6" y="5" width="38" height="22" rx="2" fill="none" stroke="#25595a" stroke-width=".8"/><rect x="48" y="5" width="38" height="22" rx="2" fill="none" stroke="#25595a" stroke-width=".8"/><rect x="38" y="13" width="2" height="6" rx="1" fill="#B4BEC6"/><rect x="51" y="13" width="2" height="6" rx="1" fill="#B4BEC6"/></g><g transform="matrix(1,0.5,0,1,537.36,268.08)"><rect x="0" y="0" width="52.8" height="5" fill="#F5C02E"/><rect x="0" y="0" width="52.8" height="5" fill="url(#lz)"/></g><polygon points="535.44,203.12 537.36,204.08 537.36,242.08 535.44,241.12" fill="url(#lathe-lg8)" stroke="#606c78" stroke-width="0.8" stroke-opacity="0.55" stroke-linejoin="round" opacity="0.95"/><polygon points="604.56,170.48 537.36,204.08 537.36,242.08 604.56,208.48" fill="url(#lathe-lg9)" stroke="#606c78" stroke-width="0.8" stroke-opacity="0.55" stroke-linejoin="round" opacity="0.95"/><polygon points="602.64,169.52 604.56,170.48 537.36,204.08 535.44,203.12" fill="url(#lathe-lg10)" stroke="#606c78" stroke-width="0.8" stroke-opacity="0.55" stroke-linejoin="round" opacity="0.95"/><polygon points="538,237.4 589.2,263 589.2,268 538,242.4" fill="url(#lathe-lg11)" stroke="#44525e" stroke-width="0.8" stroke-opacity="0.55" stroke-linejoin="round"/><polygon points="656.4,229.4 589.2,263 589.2,268 656.4,234.4" fill="url(#lathe-lg12)" stroke="#44525e" stroke-width="0.8" stroke-opacity="0.55" stroke-linejoin="round"/><polygon points="605.2,203.8 656.4,229.4 589.2,263 538,237.4" fill="url(#lathe-lg13)" stroke="#44525e" stroke-width="0.8" stroke-opacity="0.55" stroke-linejoin="round"/><polyline points="538,237.4 589.2,263 656.4,229.4" fill="none" stroke="#cbd0d4" stroke-width="1" stroke-linecap="round" stroke-linejoin="round" opacity="0.75"/><polygon points="550.8,233.2 579.6,247.6 579.6,256.6 550.8,242.2" fill="url(#lathe-lg14)" stroke="#4c5a67" stroke-width="0.8" stroke-opacity="0.55" stroke-linejoin="round"/><polygon points="643.6,215.6 579.6,247.6 579.6,256.6 643.6,224.6" fill="url(#lathe-lg15)" stroke="#4c5a67" stroke-width="0.8" stroke-opacity="0.55" stroke-linejoin="round"/><polygon points="614.8,201.2 643.6,215.6 579.6,247.6 550.8,233.2" fill="url(#lathe-lg16)" stroke="#4c5a67" stroke-width="0.8" stroke-opacity="0.55" stroke-linejoin="round"/><polyline points="550.8,233.2 579.6,247.6 643.6,215.6" fill="none" stroke="#d2d7db" stroke-width="1" stroke-linecap="round" stroke-linejoin="round" opacity="0.75"/><polyline points="616.4,202 552.4,234" fill="none" stroke="#E8EEF2" stroke-width="1" stroke-linecap="round" stroke-linejoin="round"/><polyline points="642,214.8 578,246.8" fill="none" stroke="#E8EEF2" stroke-width="1" stroke-linecap="round" stroke-linejoin="round"/><polygon points="603.6,152 658,179.2 658,235.2 603.6,208" fill="url(#lathe-lg5)" stroke="#225356" stroke-width="0.8" stroke-opacity="0.55" stroke-linejoin="round"/><polygon points="682,167.2 658,179.2 658,235.2 682,223.2" fill="url(#lathe-lg6)" stroke="#225356" stroke-width="0.8" stroke-opacity="0.55" stroke-linejoin="round"/><polygon points="627.6,140 682,167.2 658,179.2 603.6,152" fill="url(#lathe-lg7)" stroke="#225356" stroke-width="0.8" stroke-opacity="0.55" stroke-linejoin="round"/><polyline points="603.6,152 658,179.2 682,167.2" fill="none" stroke="#b0d1cd" stroke-width="1" stroke-linecap="round" stroke-linejoin="round" opacity="0.75"/><polygon points="614.8,146.2 634,155.8 634,160.8 614.8,151.2" fill="url(#lathe-lg17)" stroke="#1c4448" stroke-width="0.8" stroke-opacity="0.55" stroke-linejoin="round"/><polygon points="646.8,149.4 634,155.8 634,160.8 646.8,154.4" fill="url(#lathe-lg18)" stroke="#1c4448" stroke-width="0.8" stroke-opacity="0.55" stroke-linejoin="round"/><polygon points="627.6,139.8 646.8,149.4 634,155.8 614.8,146.2" fill="url(#lathe-lg19)" stroke="#1c4448" stroke-width="0.8" stroke-opacity="0.55" stroke-linejoin="round"/><polyline points="614.8,146.2 634,155.8 646.8,149.4" fill="none" stroke="#abc5c2" stroke-width="1" stroke-linecap="round" stroke-linejoin="round" opacity="0.75"/><g transform="matrix(1,-0.5,0,1,658,181.2)"><rect x="2" y="4" width="20" height="34" rx="2" fill="#26313B" stroke="#11181E" stroke-width=".6"/><rect x="4" y="7" width="16" height="8" rx="1" fill="#7FE0CF"/><line x1="6" y1="10" x2="16" y2="10" stroke="#2C8C7E" stroke-width=".8"/><line x1="6" y1="12.5" x2="13" y2="12.5" stroke="#2C8C7E" stroke-width=".8"/><circle cx="7" cy="21" r="2.2" fill="#3CC46B"/><circle cx="13" cy="21" r="2.2" fill="#F2C230"/><circle cx="11" cy="31" r="4.2" fill="#F5C02E"/><circle cx="11" cy="31" r="3" fill="#E23B2E"/><circle cx="10" cy="30" r="1" fill="#fff" opacity=".6"/></g><g transform="matrix(1,0.5,0,1,598.48,241.76)"><circle cx="32" cy="-64" r="15" fill="#7D8993" stroke="#4A555F" stroke-width=".8"/><circle cx="32" cy="-64" r="12.5" fill="url(#chk)"/><rect x="30.6" y="-77" width="2.8" height="7" rx=".6" fill="#4A555F" transform="rotate(0 32 -64)"/><rect x="30.6" y="-77" width="2.8" height="7" rx=".6" fill="#4A555F" transform="rotate(120 32 -64)"/><rect x="30.6" y="-77" width="2.8" height="7" rx=".6" fill="#4A555F" transform="rotate(240 32 -64)"/><circle cx="32" cy="-64" r="3" fill="#2E3A45"/></g><polygon points="598.48,204.16 602.32,206.08 602.32,214.08 598.48,212.16" fill="url(#lathe-lg20)" stroke="#6a7682" stroke-width="0.8" stroke-opacity="0.55" stroke-linejoin="round"/><polygon points="632.72,190.88 602.32,206.08 602.32,214.08 632.72,198.88" fill="url(#lathe-lg21)" stroke="#6a7682" stroke-width="0.8" stroke-opacity="0.55" stroke-linejoin="round"/><polygon points="628.88,188.96 632.72,190.88 602.32,206.08 598.48,204.16" fill="url(#lathe-lg22)" stroke="#6a7682" stroke-width="0.8" stroke-opacity="0.55" stroke-linejoin="round"/><polyline points="598.48,204.16 602.32,206.08 632.72,190.88" fill="none" stroke="#e9edf0" stroke-width="1" stroke-linecap="round" stroke-linejoin="round" opacity="0.75"/><polygon points="570,208.2 611.6,229 611.6,238 570,217.2" fill="url(#lathe-lg17)" stroke="#1c4448" stroke-width="0.8" stroke-opacity="0.55" stroke-linejoin="round"/><polygon points="629.2,220.2 611.6,229 611.6,238 629.2,229.2" fill="url(#lathe-lg18)" stroke="#1c4448" stroke-width="0.8" stroke-opacity="0.55" stroke-linejoin="round"/><polygon points="587.6,199.4 629.2,220.2 611.6,229 570,208.2" fill="url(#lathe-lg19)" stroke="#1c4448" stroke-width="0.8" stroke-opacity="0.55" stroke-linejoin="round"/><polyline points="570,208.2 611.6,229 629.2,220.2" fill="none" stroke="#abc5c2" stroke-width="1" stroke-linecap="round" stroke-linejoin="round" opacity="0.75"/><polygon points="580.56,204.92 604.56,216.92 604.56,222.92 580.56,210.92" fill="url(#lathe-lg11)" stroke="#44525e" stroke-width="0.8" stroke-opacity="0.55" stroke-linejoin="round"/><polygon points="617.36,210.52 604.56,216.92 604.56,222.92 617.36,216.52" fill="url(#lathe-lg12)" stroke="#44525e" stroke-width="0.8" stroke-opacity="0.55" stroke-linejoin="round"/><polygon points="593.36,198.52 617.36,210.52 604.56,216.92 580.56,204.92" fill="url(#lathe-lg13)" stroke="#44525e" stroke-width="0.8" stroke-opacity="0.55" stroke-linejoin="round"/><polyline points="580.56,204.92 604.56,216.92 617.36,210.52" fill="none" stroke="#cbd0d4" stroke-width="1" stroke-linecap="round" stroke-linejoin="round" opacity="0.75"/><polygon points="588.24,195.84 597.84,200.64 597.84,211.64 588.24,206.84" fill="url(#lathe-lg2)" stroke="#1c2a38" stroke-width="0.8" stroke-opacity="0.55" stroke-linejoin="round"/><polygon points="607.44,195.84 597.84,200.64 597.84,211.64 607.44,206.84" fill="url(#lathe-lg3)" stroke="#1c2a38" stroke-width="0.8" stroke-opacity="0.55" stroke-linejoin="round"/><polygon points="597.84,191.04 607.44,195.84 597.84,200.64 588.24,195.84" fill="url(#lathe-lg4)" stroke="#1c2a38" stroke-width="0.8" stroke-opacity="0.55" stroke-linejoin="round"/><polyline points="588.24,195.84 597.84,200.64 607.44,195.84" fill="none" stroke="#abb0b5" stroke-width="1" stroke-linecap="round" stroke-linejoin="round" opacity="0.75"/><polygon points="587.6,194.04 597.2,198.84 597.2,201.84 587.6,197.04" fill="url(#lathe-lg23)" stroke="#7a6f4a" stroke-width="0.8" stroke-opacity="0.55" stroke-linejoin="round"/><polygon points="599.44,197.72 597.2,198.84 597.2,201.84 599.44,200.72" fill="url(#lathe-lg24)" stroke="#7a6f4a" stroke-width="0.8" stroke-opacity="0.55" stroke-linejoin="round"/><polygon points="589.84,192.92 599.44,197.72 597.2,198.84 587.6,194.04" fill="url(#lathe-lg25)" stroke="#7a6f4a" stroke-width="0.8" stroke-opacity="0.55" stroke-linejoin="round"/><polygon points="603.6,235.6 613.2,240.4 613.2,256.4 603.6,251.6" fill="url(#lathe-lg5)" stroke="#225356" stroke-width="0.8" stroke-opacity="0.55" stroke-linejoin="round"/><polygon points="635.6,229.2 613.2,240.4 613.2,256.4 635.6,245.2" fill="url(#lathe-lg6)" stroke="#225356" stroke-width="0.8" stroke-opacity="0.55" stroke-linejoin="round"/><polygon points="626,224.4 635.6,229.2 613.2,240.4 603.6,235.6" fill="url(#lathe-lg7)" stroke="#225356" stroke-width="0.8" stroke-opacity="0.55" stroke-linejoin="round"/><polyline points="603.6,235.6 613.2,240.4 635.6,229.2" fill="none" stroke="#b0d1cd" stroke-width="1" stroke-linecap="round" stroke-linejoin="round" opacity="0.75"/><g transform="matrix(1,-0.5,0,1,613.2,290.4)"><g transform="translate(11,-44)"><circle r="7.5" fill="none" stroke="#2E3A45" stroke-width="1.8"/><circle r="7.5" fill="none" stroke="#ffffff" stroke-opacity=".35" stroke-width=".5"/><line x1="0" y1="0" x2="7.17" y2="2.22" stroke="#2E3A45" stroke-width="1.1"/><line x1="0" y1="0" x2="-5.53" y2="5.07" stroke="#2E3A45" stroke-width="1.1"/><line x1="0" y1="0" x2="-1.58" y2="-7.33" stroke="#2E3A45" stroke-width="1.1"/><circle r="2.25" fill="#B4BEC6" stroke="#2E3A45" stroke-width=".6"/><circle cx="5.25" cy="-5.25" r="1.3" fill="#E04B3A"/></g></g><polygon points="550.8,207.6 582.8,223.6 582.8,247.6 550.8,231.6" fill="url(#lathe-lg5)" stroke="#225356" stroke-width="0.8" stroke-opacity="0.55" stroke-linejoin="round"/><polygon points="598.8,215.6 582.8,223.6 582.8,247.6 598.8,239.6" fill="url(#lathe-lg6)" stroke="#225356" stroke-width="0.8" stroke-opacity="0.55" stroke-linejoin="round"/><polygon points="566.8,199.6 598.8,215.6 582.8,223.6 550.8,207.6" fill="url(#lathe-lg7)" stroke="#225356" stroke-width="0.8" stroke-opacity="0.55" stroke-linejoin="round"/><polyline points="550.8,207.6 582.8,223.6 598.8,215.6" fill="none" stroke="#b0d1cd" stroke-width="1" stroke-linecap="round" stroke-linejoin="round" opacity="0.75"/><polygon points="581.2,209.8 585.04,211.72 585.04,218.72 581.2,216.8" fill="url(#lathe-lg8)" stroke="#606c78" stroke-width="0.8" stroke-opacity="0.55" stroke-linejoin="round"/><polygon points="591.44,208.52 585.04,211.72 585.04,218.72 591.44,215.52" fill="url(#lathe-lg9)" stroke="#606c78" stroke-width="0.8" stroke-opacity="0.55" stroke-linejoin="round"/><polygon points="587.6,206.6 591.44,208.52 585.04,211.72 581.2,209.8" fill="url(#lathe-lg10)" stroke="#606c78" stroke-width="0.8" stroke-opacity="0.55" stroke-linejoin="round"/><polyline points="581.2,209.8 585.04,211.72 591.44,208.52" fill="none" stroke="#e1e5e8" stroke-width="1" stroke-linecap="round" stroke-linejoin="round" opacity="0.75"/><g transform="matrix(1,0.5,0,1,534.8,273.6)"><g transform="translate(32,-64)"><circle r="7" fill="none" stroke="#2E3A45" stroke-width="1.8"/><circle r="7" fill="none" stroke="#ffffff" stroke-opacity=".35" stroke-width=".5"/><line x1="0" y1="0" x2="6.69" y2="2.07" stroke="#2E3A45" stroke-width="1.1"/><line x1="0" y1="0" x2="-5.16" y2="4.73" stroke="#2E3A45" stroke-width="1.1"/><line x1="0" y1="0" x2="-1.48" y2="-6.84" stroke="#2E3A45" stroke-width="1.1"/><circle r="2.1" fill="#B4BEC6" stroke="#2E3A45" stroke-width=".6"/><circle cx="4.9" cy="-4.9" r="1.3" fill="#E04B3A"/></g></g><polygon points="597.2,184.4 645.2,208.4 645.2,176.4 597.2,152.4" fill="#CFEFFF" stroke="#8CC4DE" stroke-width="0.9" stroke-opacity="0.9" stroke-linejoin="round" opacity="0.38"/><polyline points="605.2,184.4 618,166.8" fill="none" stroke="#FFFFFF" stroke-width="1.2" stroke-linecap="round" stroke-linejoin="round" opacity="0.7"/><polyline points="627.6,195.6 634,184.8" fill="none" stroke="#FFFFFF" stroke-width="0.8" stroke-linecap="round" stroke-linejoin="round" opacity="0.5"/><polygon points="603.28,132.96 605.2,133.92 605.2,151.92 603.28,150.96" fill="url(#lathe-lg2)" stroke="#1c2a38" stroke-width="0.8" stroke-opacity="0.55" stroke-linejoin="round"/><polygon points="607.12,132.96 605.2,133.92 605.2,151.92 607.12,150.96" fill="url(#lathe-lg3)" stroke="#1c2a38" stroke-width="0.8" stroke-opacity="0.55" stroke-linejoin="round"/><polygon points="605.2,132 607.12,132.96 605.2,133.92 603.28,132.96" fill="url(#lathe-lg4)" stroke="#1c2a38" stroke-width="0.8" stroke-opacity="0.55" stroke-linejoin="round"/><ellipse cx="598.16" cy="136.48" rx="6" ry="3" fill="#F5C02E" stroke="#2E3A45" stroke-width=".6"/></svg>