<svg xmlns="http://www.w3.org/2000/svg" viewBox="679 472 56 98" width="56" height="98"><defs><linearGradient id="sign_redtag-lg1" x1="0" y1="0" x2="0" y2="1"><stop offset="0" stop-color="#7C8890"/><stop offset="1" stop-color="#6e7b84"/></linearGradient><linearGradient id="sign_redtag-lg2" x1="0" y1="0" x2="0" y2="1"><stop offset="0" stop-color="#63707a"/><stop offset="1" stop-color="#56636d"/></linearGradient><linearGradient id="sign_redtag-lg3" x1="0" y1="0" x2="1" y2="1"><stop offset="0" stop-color="#9fa7ad"/><stop offset="1" stop-color="#949da4"/></linearGradient><linearGradient id="sign_redtag-lg4" x1="0" y1="0" x2="0" y2="1"><stop offset="0" stop-color="#FFFFFF"/><stop offset="1" stop-color="#e2e4e5"/></linearGradient><linearGradient id="sign_redtag-lg5" x1="0" y1="0" x2="0" y2="1"><stop offset="0" stop-color="#c9cdd0"/><stop offset="1" stop-color="#acb1b7"/></linearGradient><linearGradient id="sign_redtag-lg6" x1="0" y1="0" x2="1" y2="1"><stop offset="0" stop-color="#ffffff"/><stop offset="1" stop-color="#ffffff"/></linearGradient></defs><polygon points="685.2,478.32 687.12,479.28 687.12,545.28 685.2,544.32" fill="url(#sign_redtag-lg1)" stroke="#44515d" stroke-width="0.8" stroke-opacity="0.55" stroke-linejoin="round"/><polygon points="689.04,478.32 687.12,479.28 687.12,545.28 689.04,544.32" fill="url(#sign_redtag-lg2)" stroke="#44515d" stroke-width="0.8" stroke-opacity="0.55" stroke-linejoin="round"/><polygon points="687.12,477.36 689.04,478.32 687.12,479.28 685.2,478.32" fill="url(#sign_redtag-lg3)" stroke="#44515d" stroke-width="0.8" stroke-opacity="0.55" stroke-linejoin="round"/><polygon points="727.44,499.44 729.36,500.4 729.36,566.4 727.44,565.44" fill="url(#sign_redtag-lg1)" stroke="#44515d" stroke-width="0.8" stroke-opacity="0.55" stroke-linejoin="round"/><polygon points="731.28,499.44 729.36,500.4 729.36,566.4 731.28,565.44" fill="url(#sign_redtag-lg2)" stroke="#44515d" stroke-width="0.8" stroke-opacity="0.55" stroke-linejoin="round"/><polygon points="729.36,498.48 731.28,499.44 729.36,500.4 727.44,499.44" fill="url(#sign_redtag-lg3)" stroke="#44515d" stroke-width="0.8" stroke-opacity="0.55" stroke-linejoin="round"/><polygon points="682.32,475.84 730.32,499.84 730.32,525.84 682.32,501.84" fill="url(#sign_redtag-lg4)" stroke="#858c94" stroke-width="0.8" stroke-opacity="0.55" stroke-linejoin="round"/><polygon points="731.28,499.36 730.32,499.84 730.32,525.84 731.28,525.36" fill="url(#sign_redtag-lg5)" stroke="#858c94" stroke-width="0.8" stroke-opacity="0.55" stroke-linejoin="round"/><polygon points="683.28,475.36 731.28,499.36 730.32,499.84 682.32,475.84" fill="url(#sign_redtag-lg6)" stroke="#858c94" stroke-width="0.8" stroke-opacity="0.55" stroke-linejoin="round"/><g transform="matrix(1,0.5,0,1,682.32,475.84)"><rect x="0" y="0" width="48" height="11" fill="#D9412F"/><text x="24" y="7.8" font-family="Arial, Helvetica, sans-serif" font-size="5.4" font-weight="700" fill="#FFFFFF" text-anchor="middle">KHU CHỜ XỬ LÝ</text><text x="24" y="20" font-family="Arial, Helvetica, sans-serif" font-size="4.6" font-weight="700" fill="#D9412F" text-anchor="middle">Thẻ đỏ – chờ quyết định</text></g></svg>