<svg xmlns="http://www.w3.org/2000/svg" viewBox="659 162 68 73" width="68" height="73"><defs><filter id="crate-f1" x="-40%" y="-40%" width="180%" height="180%"><feGaussianBlur stdDeviation="2.5"/></filter><linearGradient id="crate-lg2" x1="0" y1="0" x2="0" y2="1"><stop offset="0" stop-color="#C98C55"/><stop offset="1" stop-color="#b27e50"/></linearGradient><linearGradient id="crate-lg3" x1="0" y1="0" x2="0" y2="1"><stop offset="0" stop-color="#9f734c"/><stop offset="1" stop-color="#886546"/></linearGradient><linearGradient id="crate-lg4" x1="0" y1="0" x2="1" y2="1"><stop offset="0" stop-color="#d7aa82"/><stop offset="1" stop-color="#d3a174"/></linearGradient><linearGradient id="crate-lg5" x1="0" y1="0" x2="0" y2="1"><stop offset="0" stop-color="#B4BEC6"/><stop offset="1" stop-color="#a0aab3"/></linearGradient><linearGradient id="crate-lg6" x1="0" y1="0" x2="0" y2="1"><stop offset="0" stop-color="#8f9aa4"/><stop offset="1" stop-color="#7b8691"/></linearGradient><linearGradient id="crate-lg7" x1="0" y1="0" x2="1" y2="1"><stop offset="0" stop-color="#cfd6db"/><stop offset="1" stop-color="#cad2d7"/></linearGradient></defs><polygon points="694.48,202.08 720.08,214.88 693.2,228.32 667.6,215.52" fill="#1E2830" opacity="0.3" filter="url(#crate-f1)"/><polygon points="665.04,183.68 690.64,196.48 690.64,224.48 665.04,211.68" fill="url(#crate-lg2)" stroke="#6a5340" stroke-width="0.8" stroke-opacity="0.55" stroke-linejoin="round"/><polygon points="714.96,184.32 690.64,196.48 690.64,224.48 714.96,212.32" fill="url(#crate-lg3)" stroke="#6a5340" stroke-width="0.8" stroke-opacity="0.55" stroke-linejoin="round"/><polygon points="689.36,171.52 714.96,184.32 690.64,196.48 665.04,183.68" fill="url(#crate-lg4)" stroke="#6a5340" stroke-width="0.8" stroke-opacity="0.55" stroke-linejoin="round"/><polyline points="665.04,183.68 690.64,196.48 714.96,184.32" fill="none" stroke="#e9d1bb" stroke-width="1" stroke-linecap="round" stroke-linejoin="round" opacity="0.75"/><g transform="matrix(1,0.5,0,1,665.04,183.68)"><line x1="0" y1="7" x2="25.6" y2="7" stroke="#93602F" stroke-width=".6"/><line x1="0" y1="14" x2="25.6" y2="14" stroke="#93602F" stroke-width=".6"/><line x1="0" y1="21" x2="25.6" y2="21" stroke="#93602F" stroke-width=".6"/><text x="12.8" y="17" font-family="Arial, Helvetica, sans-serif" font-size="6.5" font-weight="700" fill="#5A3818" text-anchor="middle" opacity=".8">PHÔI</text></g><g transform="matrix(1,-0.5,0,1,690.64,196.48)"><line x1="0" y1="7" x2="24.3" y2="7" stroke="#93602F" stroke-width=".6"/><line x1="0" y1="14" x2="24.3" y2="14" stroke="#93602F" stroke-width=".6"/><line x1="0" y1="21" x2="24.3" y2="21" stroke="#93602F" stroke-width=".6"/></g><polygon points="679.44,171.68 708.24,186.08 708.24,189.28 679.44,174.88" fill="url(#crate-lg5)" stroke="#606c78" stroke-width="0.8" stroke-opacity="0.55" stroke-linejoin="round"/><polygon points="710.8,184.8 708.24,186.08 708.24,189.28 710.8,188" fill="url(#crate-lg6)" stroke="#606c78" stroke-width="0.8" stroke-opacity="0.55" stroke-linejoin="round"/><polygon points="682,170.4 710.8,184.8 708.24,186.08 679.44,171.68" fill="url(#crate-lg7)" stroke="#606c78" stroke-width="0.8" stroke-opacity="0.55" stroke-linejoin="round"/><polygon points="675.6,173.6 704.4,188 704.4,191.2 675.6,176.8" fill="url(#crate-lg5)" stroke="#606c78" stroke-width="0.8" stroke-opacity="0.55" stroke-linejoin="round"/><polygon points="706.96,186.72 704.4,188 704.4,191.2 706.96,189.92" fill="url(#crate-lg6)" stroke="#606c78" stroke-width="0.8" stroke-opacity="0.55" stroke-linejoin="round"/><polygon points="678.16,172.32 706.96,186.72 704.4,188 675.6,173.6" fill="url(#crate-lg7)" stroke="#606c78" stroke-width="0.8" stroke-opacity="0.55" stroke-linejoin="round"/><polygon points="671.76,175.52 700.56,189.92 700.56,193.12 671.76,178.72" fill="url(#crate-lg5)" stroke="#606c78" stroke-width="0.8" stroke-opacity="0.55" stroke-linejoin="round"/><polygon points="703.12,188.64 700.56,189.92 700.56,193.12 703.12,191.84" fill="url(#crate-lg6)" stroke="#606c78" stroke-width="0.8" stroke-opacity="0.55" stroke-linejoin="round"/><polygon points="674.32,174.24 703.12,188.64 700.56,189.92 671.76,175.52" fill="url(#crate-lg7)" stroke="#606c78" stroke-width="0.8" stroke-opacity="0.55" stroke-linejoin="round"/><polygon points="677.52,169.64 706.32,184.04 706.32,187.24 677.52,172.84" fill="url(#crate-lg5)" stroke="#606c78" stroke-width="0.8" stroke-opacity="0.55" stroke-linejoin="round"/><polygon points="708.88,182.76 706.32,184.04 706.32,187.24 708.88,185.96" fill="url(#crate-lg6)" stroke="#606c78" stroke-width="0.8" stroke-opacity="0.55" stroke-linejoin="round"/><polygon points="680.08,168.36 708.88,182.76 706.32,184.04 677.52,169.64" fill="url(#crate-lg7)" stroke="#606c78" stroke-width="0.8" stroke-opacity="0.55" stroke-linejoin="round"/><polygon points="673.68,171.56 702.48,185.96 702.48,189.16 673.68,174.76" fill="url(#crate-lg5)" stroke="#606c78" stroke-width="0.8" stroke-opacity="0.55" stroke-linejoin="round"/><polygon points="705.04,184.68 702.48,185.96 702.48,189.16 705.04,187.88" fill="url(#crate-lg6)" stroke="#606c78" stroke-width="0.8" stroke-opacity="0.55" stroke-linejoin="round"/><polygon points="676.24,170.28 705.04,184.68 702.48,185.96 673.68,171.56" fill="url(#crate-lg7)" stroke="#606c78" stroke-width="0.8" stroke-opacity="0.55" stroke-linejoin="round"/></svg>